<svg id="Lager_1" data-name="Lager 1" xmlns="http://www.w3.org/2000/svg" viewBox="0 0 64 64"><g id="Layer_2" data-name="Layer 2"><path d="M42.08,63A31.84,31.84,0,1,0,.29,32.77,32,32,0,0,0,22.05,63c1.59.27,2.12-.66,2.12-1.59V57.85a1.6,1.6,0,0,0-1.85-1.59c-7.3.79-8.89-4.52-8.89-4.52C12,48,9.84,47.1,9.84,47.1c-2.91-2,.27-2,.27-2,3.18.27,4.91,3.32,4.91,3.32,2.39,4.24,6.23,3.71,8.36,3a1.6,1.6,0,0,0,1.06-1.2A4.45,4.45,0,0,1,25,48.83a1.62,1.62,0,0,0-1.2-2.26c-6.23-1.19-11.94-4.64-11.94-15.39a12,12,0,0,1,2.26-7.3,3.15,3.15,0,0,0,.53-2.65,10.22,10.22,0,0,1,0-4.51,2.91,2.91,0,0,1,3.72-2.26A24.15,24.15,0,0,1,23,16.72a2.92,2.92,0,0,0,2.52.4,27.09,27.09,0,0,1,6.5-.67,34.6,34.6,0,0,1,6.5.67,3.25,3.25,0,0,0,2.52-.4,14.64,14.64,0,0,1,4.51-2.12A3,3,0,0,1,49.38,17a16.1,16.1,0,0,1,0,4.37A3.77,3.77,0,0,0,49.91,24a12.22,12.22,0,0,1,2.26,7.29c0,10.75-5.71,14.2-11.94,15.39A1.62,1.62,0,0,0,39,49a8.87,8.87,0,0,1,.8,4v8.75C39.83,62.36,40.49,63.29,42.08,63Z"/></g></svg>