<svg id="Lager_1" data-name="Lager 1" xmlns="http://www.w3.org/2000/svg" viewBox="0 0 64 64"><defs><style>.cls-1{fill-rule:evenodd;}</style></defs><path class="cls-1" d="M55.86.42a7.72,7.72,0,0,1,7.72,7.72V55.86a7.72,7.72,0,0,1-7.72,7.72H8.14A7.72,7.72,0,0,1,.42,55.86V8.14A7.72,7.72,0,0,1,8.14.42ZM20.22,52.63V24.79H11V52.63Zm33.37,0v-16c0-8.55-4.57-12.53-10.66-12.53a9.2,9.2,0,0,0-8.34,4.59V24.79H25.34c.12,2.61,0,27.84,0,27.84h9.25V37.08a6.16,6.16,0,0,1,.31-2.25,5,5,0,0,1,4.74-3.39c3.35,0,4.69,2.56,4.69,6.3V52.63ZM15.65,11.37c-3.17,0-5.24,2.08-5.24,4.81A4.79,4.79,0,0,0,15.53,21h.06c3.22,0,5.23-2.14,5.23-4.81A4.8,4.8,0,0,0,15.65,11.37Z"/></svg>