<svg id="Lager_1" data-name="Lager 1" xmlns="http://www.w3.org/2000/svg" viewBox="0 0 64 64"><g id="Layer_2" data-name="Layer 2"><path d="M32,.42A31.58,31.58,0,1,0,63.58,32,31.67,31.67,0,0,0,32,.42ZM46,47.68a1.75,1.75,0,0,1-2.59.56c-7.1-4.4-16-5.3-26.5-2.82a1.86,1.86,0,1,1-.9-3.61c11.39-2.59,21.42-1.46,29.2,3.27A1.8,1.8,0,0,1,46,47.68Zm4.29-8.58a2.32,2.32,0,0,1-3.27.79c-8.57-5.18-21.43-6.76-31.47-3.6a2.43,2.43,0,0,1-1.46-4.63C25.57,28.17,39.78,30,49.59,36A2.17,2.17,0,0,1,50.27,39.1Zm4.4-9.58a3.23,3.23,0,0,1-4.06.79c-10.15-6-27-6.66-36.65-3.61a2.89,2.89,0,0,1-1.7-5.53c11.17-3.27,29.66-2.7,41.39,4.29A3,3,0,0,1,54.67,29.52Z"/></g></svg>